<?xml version="1.0" encoding="UTF-8"?>
<svg id="Layer_1" xmlns="http://www.w3.org/2000/svg" version="1.1" viewBox="0 0 938.92 693.9">
  <!-- Generator: Adobe Illustrator 29.2.0, SVG Export Plug-In . SVG Version: 2.1.0 Build 108)  -->
  <defs>
    <style>
      .st0 {
        fill: #b5ff2b;
      }

      .st1 {
        fill: #f9f9f9;
      }
    </style>
  </defs>
  <g>
    <path class="st0" d="M696.21,128.15l-154.47-89.16L476.2,1.12c-2.59-1.5-5.79-1.5-8.38,0l-65.55,37.86h0s-154.44,89.16-154.44,89.16c-2.59,1.5-4.19,4.26-4.19,7.25v254.02s0,.02,0,.02c0,.35.03.7.07,1.04,0,.04.01.08.02.13.04.31.11.61.18.92.01.04.02.08.03.12.18.67.45,1.32.81,1.95,0,0,0,.01.01.02.11.19.22.38.35.56.06.08.13.16.19.24.05.07.11.14.16.21.18.22.36.44.56.64.04.04.09.09.13.13.22.22.45.42.7.61.03.03.07.05.1.08.27.2.54.39.83.55.01,0,.03.02.04.03l.21.12c.05.03.1.06.16.09l219.48,126.73s0,0,.01,0l.13.07s.08.04.12.06c.16.09.32.18.5.27.08.04.16.06.24.1.1.04.2.08.3.12.24.09.48.18.73.25.08.02.16.05.24.07.3.08.61.14.91.18.03,0,.05,0,.08.01.35.05.71.08,1.06.08.65,0,1.29-.09,1.91-.24.09-.02.18-.03.27-.06.26-.07.5-.16.75-.25.1-.04.21-.07.31-.11.25-.1.49-.23.73-.36.07-.04.15-.07.22-.11l.17-.1s.07-.04.1-.06l219.75-126.87c2.59-1.5,4.19-4.26,4.19-7.25v-254.02c0-2.99-1.6-5.76-4.19-7.25ZM471.36,323.66l53.11,61.96-56.14,119.03-200.63-115.84,66.46-45.8c2.22-.47,4.12-1.81,5.31-3.66l172.1-118.61-41.51,94.1c-1.3,2.95-.79,6.38,1.3,8.83ZM683.65,301.42l-101.39-76.38,101.39,37.83v38.55ZM418.99,48.67l53.02-30.62,56.88,32.85c-2.98,28.67-27.54,51.26-56.88,51.26s-53.9-22.59-56.88-51.26l3.86-2.23ZM399.58,59.88c2.91,14.28,9.98,27.4,20.61,37.84,13.92,13.67,32.32,21.2,51.82,21.2s37.91-7.53,51.83-21.2c10.62-10.44,17.69-23.55,20.6-37.84l139.21,80.36v104.76l-149.56-55.79s-.05-.02-.08-.03c-.07-.03-.14-.05-.21-.07-.07-.02-.14-.04-.22-.06-.08-.03-.17-.05-.25-.08-.02,0-.04-.01-.07-.02-.06-.02-.12-.03-.19-.04-.1-.02-.2-.04-.3-.06-.08-.02-.16-.03-.24-.05-.08-.01-.17-.02-.25-.04-.09-.01-.17-.03-.26-.03-.08,0-.15-.01-.23-.02-.11,0-.22-.02-.33-.02-.04,0-.09,0-.13,0-.09,0-.18,0-.26,0-.01,0-.03,0-.04,0-.1,0-.2,0-.3,0-.05,0-.09,0-.14.01-.1,0-.2.02-.29.03-.09,0-.18.01-.26.03-.07,0-.14.02-.2.04-.09.01-.17.03-.26.04-.09.02-.18.04-.28.06-.08.02-.16.04-.24.06,0,0-.02,0-.02,0-.06.02-.11.03-.17.04-.1.03-.2.06-.3.1-.08.02-.15.05-.22.08-.06.02-.13.04-.2.07-.01,0-.02,0-.03.01-.1.04-.2.08-.3.13-.06.02-.11.05-.17.07-.06.03-.12.06-.18.08-.07.03-.14.07-.21.11-.1.05-.19.1-.29.15,0,0-.01,0-.02.01-.04.03-.08.05-.13.08-.09.05-.17.11-.26.16-.05.03-.11.06-.16.1l-185.61,127.92v-26.49l7.15,4.67c1.41.92,3,1.36,4.57,1.36,2.73,0,5.41-1.34,7.02-3.8,2.53-3.87,1.44-9.06-2.43-11.59l-16.31-10.66v-9.76l12.37,7.83c1.39.88,2.94,1.3,4.47,1.3,2.78,0,5.49-1.38,7.09-3.9,2.47-3.91,1.31-9.08-2.6-11.56l-21.33-13.49v-6.4l16.07,10.87c1.44.97,3.07,1.44,4.69,1.44,2.69,0,5.33-1.29,6.94-3.68,2.59-3.83,1.59-9.04-2.24-11.63l-25.46-17.23v-1.58l9.91,6.08c1.37.84,2.88,1.24,4.38,1.24,2.81,0,5.56-1.42,7.14-3.99,2.42-3.94,1.19-9.1-2.75-11.52l-22.66-13.92s-.05-.03-.08-.04c-.07-.04-.15-.09-.22-.13-.1-.06-.2-.11-.31-.16-.08-.04-.15-.08-.23-.12-.06-.03-.11-.05-.17-.08-.11-.05-.23-.09-.34-.14-.09-.03-.18-.07-.27-.1-.05-.02-.09-.03-.14-.04-.12-.04-.24-.07-.36-.11-.1-.03-.2-.06-.3-.08-.04-.01-.09-.02-.13-.03-.12-.03-.23-.05-.35-.07-.1-.02-.21-.04-.31-.06-.06,0-.11-.01-.17-.02-.11-.01-.22-.02-.33-.03-.1,0-.2-.02-.3-.02-.08,0-.15,0-.23,0-.05,0-.11,0-.16,0s-.1,0-.15,0c-.08,0-.16,0-.25,0-.09,0-.19.02-.28.02-.11,0-.22.02-.33.03-.06,0-.12.01-.18.02-.1.01-.2.04-.3.05-.12.02-.23.04-.35.07-.05.01-.1.02-.15.03-.1.02-.19.05-.29.08-.12.03-.24.07-.36.11-.05.02-.1.03-.15.05-.09.03-.17.07-.26.1-.12.04-.23.09-.34.14-.06.03-.12.05-.18.08-.08.04-.15.08-.22.11-.1.05-.21.1-.31.16-.08.04-.15.09-.22.13-.03.01-.05.03-.08.04l-22.66,13.92c-3.94,2.42-5.17,7.58-2.75,11.52,1.58,2.57,4.33,3.99,7.14,3.99,1.5,0,3.01-.4,4.38-1.24l9.91-6.08v1.58l-25.46,17.23c-3.83,2.59-4.84,7.8-2.24,11.63,1.62,2.39,4.26,3.68,6.94,3.68,1.62,0,3.25-.47,4.69-1.44l16.07-10.87v6.4l-21.33,13.49c-3.91,2.47-5.07,7.65-2.6,11.56,1.59,2.52,4.31,3.9,7.09,3.9,1.53,0,3.08-.42,4.47-1.3l12.37-7.83v9.76l-16.31,10.66c-3.87,2.53-4.96,7.72-2.43,11.59,1.61,2.46,4.29,3.8,7.02,3.8,1.57,0,3.16-.44,4.57-1.36l7.15-4.67v38.04l-63.66,43.87v-233.25l139.19-80.36ZM491.01,495.8l50.92-107.94c1.41-2.98.93-6.52-1.22-9.02l-53.2-62.07,47.05-106.67,149.09,112.3v62.19l-192.63,111.21Z"/>
    <path class="st0" d="M333.81,158.24c1.85,0,3.72-.61,5.27-1.87l59.43-48.26c3.59-2.92,4.14-8.19,1.22-11.78-2.92-3.59-8.19-4.14-11.78-1.22l-59.43,48.26c-3.59,2.92-4.14,8.19-1.22,11.78,1.66,2.04,4.07,3.1,6.51,3.1Z"/>
    <path class="st0" d="M411.37,210.33c.76.21,1.52.31,2.27.31,3.66,0,7.02-2.42,8.06-6.11l19.94-70.93c1.25-4.45-1.34-9.08-5.8-10.33-4.45-1.25-9.08,1.34-10.33,5.8l-19.94,70.94c-1.25,4.45,1.34,9.08,5.8,10.33Z"/>
    <path class="st0" d="M545.73,108.22l61.42,51.25c1.57,1.31,3.47,1.95,5.36,1.95,2.4,0,4.78-1.02,6.44-3.01,2.96-3.55,2.49-8.83-1.06-11.8l-61.42-51.25c-3.55-2.96-8.83-2.49-11.8,1.06-2.96,3.55-2.49,8.83,1.06,11.8Z"/>
    <path class="st0" d="M501.49,180.09c.94,3.82,4.36,6.37,8.13,6.37.66,0,1.34-.08,2.01-.24,4.49-1.11,7.24-5.64,6.13-10.14l-10.37-42.11c-1.11-4.49-5.65-7.23-10.13-6.13-4.49,1.11-7.24,5.64-6.13,10.14l10.37,42.11Z"/>
  </g>
  <g>
    <path class="st1" d="M5.11,589.19h86.72v21.7h-30.75v82.42h-25.15v-82.42H5.11v-21.7Z"/>
    <path class="st1" d="M130.63,693.32h-25.23v-104.12h25.23v104.12Z"/>
    <path class="st1" d="M155.55,693.32v-104.12h21.47l52.44,63.49v-63.49h25.23v104.12h-21.85l-52.06-62.87v62.87h-25.23Z"/>
    <path class="st1" d="M298.16,589.19l24.08,39.72,24.46-39.72h29.52l-41.71,65.4v38.72h-25.23v-38.72l-42.02-65.4h30.9Z"/>
    <path class="st1" d="M403.36,589.19h86.72v21.7h-30.75v82.42h-25.15v-82.42h-30.82v-21.7Z"/>
    <path class="st1" d="M503.65,693.32v-104.12h52.6c19.63,0,35.58,13.88,35.58,33.81,0,14.87-8.36,26.3-20.47,31.44l21.78,38.95h-27.22l-19.71-35.96h-17.4v35.88h-25.15ZM528.8,635.96h22.01c9.51,0,15.18-5.6,15.18-12.96,0-6.9-5.6-12.34-15.18-12.34h-22.01v25.3Z"/>
    <path class="st1" d="M637.29,589.19h29.9l41.17,104.12h-26.99l-7.05-19.09h-44.09l-7.05,19.09h-26.99l41.1-104.12ZM637.44,654.6h29.67l-14.8-40.18-14.87,40.18Z"/>
    <path class="st1" d="M745.78,693.32h-25.23v-104.12h25.23v104.12Z"/>
    <path class="st1" d="M848.76,693.32h-78.05v-104.12h25.23v82.96h52.83v21.16Z"/>
    <path class="st1" d="M872.76,657.13c5.9,9.2,15.64,14.95,25.76,14.95,8.2,0,14.95-3.3,14.95-8.05,0-6.67-8.82-8.66-21.32-12.42-18.63-5.6-35.58-11.58-35.58-32.89,0-19.17,18.71-31.05,37.8-31.05s31.74,8.82,40.94,22.24l-18.63,13.72c-4.6-6.59-12.19-13.8-22.31-13.8-7.28,0-12.34,3.45-12.34,8.43,0,6.9,7.97,8.13,19.25,11.88,23.54,7.82,37.65,14.03,37.65,33.05,0,21.7-21.16,31.67-41.02,31.67-18.71,0-36.27-8.28-44.09-23.92l18.94-13.8Z"/>
  </g>
</svg>